<svg width="180" height="60" viewBox="0 0 180 60" fill="none" xmlns="http://www.w3.org/2000/svg">
<rect width="180" height="60" rx="5" fill="black"/>
<path fill-rule="evenodd" clip-rule="evenodd" d="M46.5702 29.139C46.5367 25.4658 49.6201 23.6783 49.7619 23.595C48.015 21.0837 45.3085 20.741 44.3575 20.7133C42.0841 20.4774 39.8792 22.0547 38.7208 22.0547C37.5396 22.0547 35.7571 20.7368 33.8343 20.7752C31.3615 20.8123 29.0476 22.225 27.7788 24.4178C25.1599 28.8897 27.1134 35.461 29.6218 39.0758C30.8771 40.8455 32.3432 42.8225 34.2632 42.7526C36.1411 42.6764 36.8429 41.5722 39.1091 41.5722C41.3546 41.5722 42.0136 42.7526 43.9713 42.7085C45.9875 42.6764 47.2556 40.9303 48.4667 39.1442C49.9172 37.1153 50.4999 35.1169 50.5227 35.0143C50.4757 34.998 46.6087 33.5425 46.5702 29.139V29.139ZM42.8721 18.3359C43.8823 17.0892 44.5733 15.3951 44.3817 13.6746C42.9198 13.7387 41.091 14.6719 40.0388 15.8902C39.1069 16.9645 38.2748 18.7242 38.49 20.3791C40.1321 20.5002 41.8184 19.562 42.8721 18.3359ZM69.2536 36.1735L67.9535 32.2124C67.816 31.8078 67.5581 30.8545 67.1776 29.3549H67.1313C66.9008 30.3106 66.6574 31.2632 66.4011 32.2124L65.1237 36.1735H69.2536ZM73.749 42.4983H71.1244L69.6868 38.0428H64.6899L63.3199 42.4983H60.7645L65.7158 27.3295H68.7735L73.749 42.4983ZM83.9715 36.9842C83.9715 35.9191 83.7286 35.0414 83.2406 34.3511C82.7084 33.6301 81.9924 33.2703 81.0962 33.2703C80.4878 33.2703 79.9349 33.4705 79.4419 33.8666C78.9475 34.2656 78.6241 34.7857 78.473 35.4311C78.3961 35.7325 78.3583 35.9783 78.3583 36.172V37.9958C78.3583 38.7916 78.6056 39.4634 79.1 40.012C79.5944 40.5598 80.237 40.8334 81.0278 40.8334C81.9561 40.8334 82.6777 40.48 83.195 39.7754C83.7122 39.0701 83.9715 38.1397 83.9715 36.9842ZM86.4813 36.8951C86.4813 38.7553 85.972 40.2257 84.9525 41.305C84.0392 42.2661 82.9057 42.7462 81.5521 42.7462C80.0917 42.7462 79.0423 42.2283 78.4032 41.1932H78.3569V46.9552H75.8927V35.1611C75.8927 33.992 75.862 32.7916 75.8015 31.5605H77.9687L78.1062 33.2939H78.1525C78.9739 31.988 80.2213 31.3361 81.8948 31.3361C83.2028 31.3361 84.2949 31.8455 85.1684 32.8657C86.0446 33.8866 86.4813 35.2295 86.4813 36.8951ZM96.7266 36.9842C96.7266 35.9191 96.483 35.0414 95.995 34.3511C95.4621 33.6301 94.7497 33.2703 93.8513 33.2703C93.2422 33.2703 92.6908 33.4705 92.1964 33.8666C91.7019 34.2656 91.3792 34.7857 91.2275 35.4311C91.1527 35.7325 91.1135 35.9783 91.1135 36.172V37.9958C91.1135 38.7916 91.3607 39.4634 91.853 40.012C92.3481 40.5584 92.99 40.8334 93.7836 40.8334C94.7112 40.8334 95.4336 40.48 95.9501 39.7754C96.468 39.0701 96.7266 38.1397 96.7266 36.9842ZM99.2372 36.8951C99.2372 38.7553 98.7271 40.2257 97.7069 41.305C96.795 42.2661 95.6609 42.7462 94.308 42.7462C92.8475 42.7462 91.7974 42.2283 91.1591 41.1932H91.1135V46.9552H88.6492V35.1611C88.6492 33.992 88.6186 32.7916 88.558 31.5605H90.7252L90.8627 33.2939H90.909C91.7297 31.988 92.9765 31.3361 94.6514 31.3361C95.9579 31.3361 97.0501 31.8455 97.9263 32.8657C98.7991 33.8866 99.2372 35.2295 99.2372 36.8951ZM113.498 38.2445C113.498 39.5346 113.044 40.5848 112.132 41.3955C111.13 42.281 109.735 42.7234 107.943 42.7234C106.288 42.7234 104.961 42.4085 103.957 41.7781L104.528 39.7526C105.61 40.3981 106.797 40.7215 108.09 40.7215C109.017 40.7215 109.74 40.5142 110.259 40.1017C110.776 39.6885 111.033 39.135 111.033 38.4439C111.033 37.8284 110.82 37.3098 110.394 36.8894C109.97 36.4691 109.262 36.0773 108.272 35.7161C105.579 34.7258 104.234 33.2746 104.234 31.3668C104.234 30.12 104.706 29.097 105.65 28.3012C106.59 27.5047 107.846 27.1072 109.416 27.1072C110.815 27.1072 111.977 27.3473 112.906 27.8268L112.289 29.8087C111.422 29.3435 110.443 29.1105 109.346 29.1105C108.479 29.1105 107.802 29.3214 107.317 29.741C106.906 30.1165 106.7 30.5731 106.7 31.1146C106.7 31.7144 106.936 32.2103 107.407 32.6C107.817 32.9604 108.562 33.3501 109.643 33.7705C110.967 34.2962 111.939 34.9103 112.564 35.6149C113.187 36.3174 113.498 37.1965 113.498 38.2445H113.498ZM121.645 33.3843H118.929V38.6947C118.929 40.0455 119.407 40.7201 120.367 40.7201C120.807 40.7201 121.172 40.6831 121.461 40.6075L121.529 42.4527C121.044 42.6322 120.405 42.722 119.613 42.722C118.64 42.722 117.88 42.4292 117.33 41.8443C116.784 41.2587 116.509 40.2756 116.509 38.8949V33.3822H114.891V31.5584H116.508V29.5551L118.929 28.8355V31.5584H121.645V33.3843V33.3843ZM131.342 37.0184C131.342 36.0096 131.124 35.1447 130.681 34.4223C130.165 33.5496 129.426 33.1143 128.469 33.1143C127.479 33.1143 126.727 33.5503 126.21 34.4223C125.767 35.1454 125.549 36.0238 125.549 37.064C125.549 38.0728 125.767 38.9376 126.21 39.6579C126.742 40.5313 127.487 40.9666 128.447 40.9666C129.387 40.9666 130.126 40.5221 130.659 39.6351C131.114 38.8999 131.342 38.0257 131.342 37.0184ZM133.898 36.94C133.898 38.6213 133.411 40.0013 132.438 41.0806C131.417 42.192 130.063 42.7462 128.374 42.7462C126.747 42.7462 125.451 42.2133 124.485 41.149C123.519 40.0846 123.036 38.741 123.036 37.121C123.036 35.4254 123.534 34.0376 124.531 32.9576C125.525 31.8776 126.868 31.3368 128.557 31.3368C130.184 31.3368 131.493 31.869 132.482 32.9348C133.427 33.9692 133.898 35.3036 133.898 36.9393V36.94ZM141.908 33.6978C141.651 33.652 141.391 33.6293 141.131 33.6301C140.264 33.6301 139.594 33.9528 139.122 34.599C138.712 35.1689 138.506 35.8899 138.506 36.7591V42.4983H136.044L136.067 35.0051C136.067 33.7441 136.036 32.5971 135.974 31.5613H138.12L138.211 33.6543H138.279C138.539 32.9348 138.949 32.3563 139.511 31.9217C140.059 31.5306 140.653 31.3361 141.292 31.3361C141.52 31.3361 141.725 31.3518 141.908 31.3803V33.6978V33.6978ZM150.578 35.8814C150.594 35.1618 150.433 34.5392 150.1 34.0134C149.673 33.3373 149.017 33.0003 148.135 33.0003C147.33 33.0003 146.675 33.3295 146.175 33.9906C145.765 34.5164 145.52 35.1461 145.445 35.8806H150.578V35.8814ZM152.927 36.5119C152.927 36.9471 152.899 37.3147 152.837 37.614H145.445C145.474 38.6947 145.832 39.5211 146.518 40.091C147.141 40.6004 147.946 40.8562 148.936 40.8562C150.03 40.8562 151.029 40.6838 151.926 40.3383L152.312 42.0253C151.263 42.4769 150.024 42.7021 148.594 42.7021C146.875 42.7021 145.525 42.2019 144.543 41.2046C143.562 40.2072 143.072 38.8678 143.072 37.1879C143.072 35.5387 143.528 34.1651 144.442 33.0702C145.399 31.9004 146.692 31.3155 148.319 31.3155C149.918 31.3155 151.128 31.8997 151.95 33.0694C152.6 33.9984 152.927 35.1476 152.927 36.5119V36.5119ZM67.1613 18.0296C67.1613 17.1604 66.9283 16.4936 66.461 16.0284C65.9943 15.5646 65.3125 15.3324 64.4142 15.3324C64.033 15.3324 63.7089 15.3573 63.4389 15.4093V20.9826C63.5885 21.0053 63.8606 21.0153 64.2574 21.0153C65.1836 21.0153 65.8996 20.761 66.4033 20.253C66.9076 19.7444 67.1613 19.0035 67.1613 18.0303V18.0296ZM68.4386 17.9968C68.4386 19.339 68.0304 20.3485 67.2161 21.0267C66.461 21.6529 65.3888 21.9664 63.9996 21.9664C63.4077 21.9714 62.8161 21.9417 62.2278 21.8773V14.5458C62.9179 14.4394 63.6154 14.3877 64.3137 14.3913C65.6374 14.3913 66.6348 14.6748 67.3073 15.2426C68.061 15.8838 68.4386 16.8021 68.4386 17.9961V17.9968ZM73.9535 19.2079C73.9535 18.7121 73.8452 18.2868 73.6286 17.9327C73.375 17.5038 73.0131 17.2894 72.5429 17.2894C72.0563 17.2894 71.6858 17.5031 71.4315 17.932C71.2149 18.2868 71.1074 18.7185 71.1074 19.2293C71.1074 19.7251 71.2156 20.1504 71.4322 20.5045C71.6944 20.9334 72.0591 21.1478 72.5308 21.1478C72.9938 21.1478 73.3565 20.9298 73.6172 20.4931C73.8416 20.1319 73.9535 19.7038 73.9535 19.2079V19.2079ZM75.2102 19.1687C75.2102 19.9951 74.9708 20.6719 74.4921 21.2034C73.9905 21.7498 73.3258 22.022 72.4966 22.022C71.6965 22.022 71.0596 21.7612 70.5844 21.2369C70.1107 20.7133 69.8742 20.0536 69.8742 19.2578C69.8742 18.4257 70.1178 17.7432 70.6079 17.2131C71.0981 16.6831 71.7564 16.4174 72.5863 16.4174C73.3864 16.4174 74.029 16.6781 74.5156 17.201C74.9779 17.7097 75.2102 18.3665 75.2102 19.1687V19.1687ZM84.2892 16.5264L82.5844 21.9001H81.4752L80.7685 19.567C80.5927 18.9962 80.4467 18.4167 80.331 17.8308H80.309C80.2044 18.4192 80.058 18.9994 79.8708 19.567L79.1206 21.9001H77.9993L76.3963 16.5264H77.6409L78.2572 19.0811C78.4061 19.6852 78.5286 20.2609 78.6269 20.8052H78.6483C78.7388 20.3563 78.8884 19.7843 79.0985 19.0925L79.8715 16.5278H80.8582L81.5991 19.0376C81.7787 19.6503 81.924 20.2395 82.0359 20.8066H82.0693C82.1608 20.2107 82.2845 19.6202 82.4398 19.0376L83.1009 16.5278H84.2899V16.5264H84.2892ZM90.5678 21.9001H89.3567V18.8225C89.3567 17.8743 88.9919 17.3998 88.2595 17.3998C87.8998 17.3998 87.6091 17.5295 87.384 17.7909C87.1625 18.0462 87.0428 18.3741 87.0477 18.7121V21.8987H85.8366V18.0623C85.8366 17.59 85.8216 17.0785 85.7924 16.5242H86.8568L86.9138 17.3649H86.9473C87.0883 17.1034 87.2985 16.8876 87.5742 16.7159C87.9049 16.5143 88.2855 16.4096 88.6727 16.4138C89.1814 16.4138 89.6039 16.5755 89.9408 16.9004C90.359 17.2986 90.5678 17.8921 90.5678 18.6814V21.9001V21.9001ZM92.6979 21.9001H93.9083V14.0614H92.6979V21.9001ZM99.7815 19.2079C99.7815 18.7121 99.6725 18.2868 99.4566 17.9327C99.2037 17.5038 98.8404 17.2894 98.3716 17.2894C97.8836 17.2894 97.5139 17.5031 97.2602 17.932C97.0437 18.2868 96.9361 18.7185 96.9361 19.2293C96.9361 19.7251 97.0444 20.1504 97.261 20.5045C97.5231 20.9334 97.8879 21.1478 98.3595 21.1478C98.8226 21.1478 99.1838 20.9298 99.4452 20.4931C99.6704 20.1319 99.7815 19.7038 99.7815 19.2079V19.2079ZM101.039 19.1687C101.039 19.9951 100.8 20.6719 100.321 21.2034C99.8192 21.7498 99.1538 22.022 98.3253 22.022C97.5238 22.022 96.8876 21.7612 96.4139 21.2369C95.9394 20.7133 95.7029 20.0536 95.7029 19.2578C95.7029 18.4257 95.9465 17.7432 96.4367 17.2131C96.9268 16.6831 97.5851 16.4174 98.4144 16.4174C99.2151 16.4174 99.8563 16.6781 100.344 17.201C100.807 17.7097 101.039 18.3665 101.039 19.1687V19.1687ZM105.643 20.0528V19.2257C104.307 19.2029 103.639 19.5641 103.639 20.3086C103.639 20.5886 103.715 20.7987 103.871 20.9384C104.028 21.0787 104.226 21.1485 104.463 21.1485C104.729 21.1485 104.977 21.0652 105.204 20.8999C105.34 20.8056 105.452 20.6792 105.529 20.5318C105.605 20.3844 105.645 20.2204 105.643 20.0543V20.0528ZM106.901 21.9009H105.813L105.723 21.2818H105.689C105.317 21.7755 104.787 22.0227 104.098 22.0227C103.584 22.0227 103.168 21.8595 102.854 21.5361C102.57 21.2419 102.428 20.8757 102.428 20.4418C102.428 19.785 102.705 19.2849 103.263 18.9386C103.82 18.5917 104.604 18.4221 105.613 18.43V18.3288C105.613 17.6206 105.236 17.2673 104.481 17.2673C103.944 17.2673 103.47 17.4012 103.061 17.6655L102.815 16.8812C103.321 16.572 103.946 16.4174 104.684 16.4174C106.108 16.4174 106.822 17.1583 106.822 18.6401V20.6185C106.822 21.1557 106.849 21.5831 106.9 21.9001L106.901 21.9009ZM112.527 19.6339V18.7377C112.527 18.5831 112.516 18.4577 112.494 18.3616C112.429 18.0798 112.275 17.8262 112.056 17.6377C111.831 17.4436 111.543 17.3395 111.246 17.3457C110.794 17.3457 110.441 17.5216 110.18 17.8764C109.923 18.2305 109.792 18.6836 109.792 19.2364C109.792 19.7672 109.916 20.1982 110.164 20.5302C110.426 20.8835 110.78 21.0602 111.223 21.0602C111.62 21.0602 111.938 20.9127 112.18 20.6178C112.413 20.3449 112.527 20.0172 112.527 19.6339V19.6339ZM113.783 21.8994H112.708L112.651 21.0374H112.618C112.274 21.6935 111.69 22.022 110.868 22.022C110.211 22.022 109.664 21.7676 109.232 21.2597C108.798 20.751 108.582 20.0913 108.582 19.2806C108.582 18.4114 108.817 17.7061 109.288 17.1683C109.744 16.6667 110.304 16.4159 110.969 16.4159C111.701 16.4159 112.213 16.6589 112.505 17.1455H112.527V14.0614H113.74V20.4532C113.74 20.9761 113.754 21.4584 113.783 21.9009V21.8994ZM122.886 19.2079C122.886 18.7121 122.778 18.2868 122.561 17.9327C122.306 17.5038 121.946 17.2894 121.474 17.2894C120.988 17.2894 120.619 17.5031 120.363 17.932C120.146 18.2868 120.038 18.7185 120.038 19.2293C120.038 19.7251 120.147 20.1504 120.363 20.5045C120.625 20.9334 120.99 21.1478 121.463 21.1478C121.924 21.1478 122.289 20.9298 122.55 20.4931C122.773 20.1319 122.886 19.7038 122.886 19.2079V19.2079ZM124.141 19.1687C124.141 19.9951 123.902 20.6719 123.423 21.2034C122.922 21.7498 122.258 22.022 121.428 22.022C120.629 22.022 119.992 21.7612 119.516 21.2369C119.042 20.7133 118.805 20.0536 118.805 19.2578C118.805 18.4257 119.049 17.7432 119.539 17.2131C120.029 16.6831 120.688 16.4174 121.519 16.4174C122.317 16.4174 122.961 16.6781 123.447 17.201C123.909 17.7097 124.141 18.3665 124.141 19.1687V19.1687ZM130.654 21.9001H129.443V18.8225C129.443 17.8743 129.078 17.3998 128.344 17.3998C127.985 17.3998 127.695 17.5295 127.47 17.7909C127.248 18.046 127.129 18.374 127.134 18.7121V21.8987H125.922V18.0623C125.922 17.59 125.908 17.0785 125.88 16.5242H126.942L126.999 17.3649H127.033C127.175 17.1034 127.385 16.8876 127.66 16.7159C127.991 16.5144 128.372 16.4098 128.759 16.4138C129.266 16.4138 129.69 16.5755 130.026 16.9004C130.446 17.2986 130.653 17.8921 130.653 18.6814V21.9001H130.654ZM138.804 17.4212H137.471V20.0315C137.471 20.6954 137.708 21.0267 138.177 21.0267C138.395 21.0267 138.575 21.0089 138.717 20.9712L138.748 21.8773C138.509 21.9664 138.194 22.0106 137.808 22.0106C137.329 22.0106 136.957 21.8667 136.688 21.5796C136.417 21.2925 136.283 20.8094 136.283 20.1312V17.4212H135.486V16.5264H136.283V15.5418L137.47 15.1885V16.5257H138.804V17.4212H138.805H138.804ZM145.216 21.9001H144.004V18.8453C144.004 17.8821 143.639 17.3998 142.907 17.3998C142.346 17.3998 141.962 17.6791 141.751 18.2376C141.712 18.3772 141.692 18.522 141.695 18.6672V21.8987H140.486V14.0614H141.696V17.2993H141.719C142.101 16.7102 142.647 16.4159 143.355 16.4159C143.857 16.4159 144.272 16.5777 144.602 16.9025C145.012 17.3072 145.217 17.9092 145.217 18.7049V21.9001H145.216ZM150.675 18.6501C150.684 18.296 150.605 17.9904 150.44 17.7325C150.23 17.4012 149.91 17.2345 149.476 17.2345C149.081 17.2345 148.759 17.3962 148.512 17.7211C148.307 17.9905 148.183 18.3127 148.153 18.6501H150.675H150.675ZM151.831 18.9593C151.831 19.173 151.814 19.3532 151.785 19.5007H148.153C148.169 20.0315 148.343 20.4361 148.679 20.7168C148.986 20.9676 149.383 21.093 149.869 21.093C150.405 21.093 150.895 21.0089 151.337 20.8386L151.527 21.6686C151.01 21.8895 150.402 22.0006 149.699 22.0006C148.854 22.0006 148.19 21.7555 147.709 21.2654C147.226 20.7752 146.987 20.117 146.987 19.292C146.987 18.4812 147.21 17.8066 147.66 17.2687C148.129 16.6945 148.764 16.4067 149.565 16.4067C150.348 16.4067 150.943 16.6945 151.346 17.2687C151.67 17.7247 151.83 18.2889 151.83 18.9593" fill="white"/>
</svg>
