<svg width="180" height="60" viewBox="0 0 180 60" fill="none" xmlns="http://www.w3.org/2000/svg">
<rect width="180" height="60" rx="5" fill="black"/>
<path fill-rule="evenodd" clip-rule="evenodd" d="M22.9582 15.5224C22.6112 15.8715 22.4951 16.5683 22.4951 17.1496V42.6228C22.4951 43.2049 22.7267 43.7862 22.9582 44.2514L23.0743 44.3676L37.4281 30.0615V29.7124L22.9589 15.5217L22.9582 15.5224Z" fill="url(#paint0_linear_2086_2087)"/>
<path fill-rule="evenodd" clip-rule="evenodd" d="M42.174 34.7136L37.4279 29.9447V29.5956L42.174 24.8274L42.2894 24.9442L47.9617 28.2007C49.5824 29.1311 49.5824 30.6436 47.9617 31.574L42.174 34.7143V34.7136Z" fill="url(#paint1_linear_2086_2087)"/>
<path fill-rule="evenodd" clip-rule="evenodd" d="M42.2896 34.7134L37.3127 29.8284L22.9589 44.2499C23.6535 44.8319 24.695 44.8319 25.3896 44.3667L42.2896 34.7134" fill="url(#paint2_linear_2086_2087)"/>
<path fill-rule="evenodd" clip-rule="evenodd" d="M42.2894 24.9435L25.2747 15.4056C24.5794 14.9404 23.5364 14.9404 22.8425 15.5224L37.3118 29.8292L42.2894 24.9442V24.9435Z" fill="url(#paint3_linear_2086_2087)"/>
<path fill-rule="evenodd" clip-rule="evenodd" d="M65.904 18.5459C65.904 19.3602 65.5564 20.2906 65.0933 20.8719C64.7589 21.2058 64.3618 21.4702 63.9248 21.6499C63.4878 21.8297 63.0196 21.9212 62.5471 21.9192C61.621 21.9192 60.5787 21.5701 60.0002 20.8719C59.1902 20.1737 58.8425 19.244 58.8425 18.3129C58.8425 17.2664 59.1902 16.336 59.8848 15.7546C60.5787 15.0564 61.5048 14.5912 62.431 14.7074C62.8941 14.7074 63.3571 14.8235 63.8202 15.0564C64.1671 15.2894 64.6302 15.4055 64.9779 15.8707L64.3987 16.2198C63.8765 15.6985 63.1688 15.4056 62.431 15.4055C61.621 15.4055 60.9264 15.7546 60.3472 16.336C59.8276 16.8627 59.5366 17.573 59.5371 18.3129C59.5371 19.0111 59.8848 19.8254 60.3472 20.2906C60.8695 20.8121 61.5775 21.105 62.3156 21.1049C63.1256 21.1049 63.7048 20.7558 64.2833 20.2906C64.6302 19.8254 64.8618 19.2433 64.9779 18.7781H62.431V17.9645H65.7879C65.904 18.1968 65.904 18.4297 65.904 18.5459V18.5459ZM71.2279 15.6385H68.1033V17.9645H70.8817V18.7781H68.1033V20.9888H71.2279V21.8023H67.1764V14.8235H71.2279V15.6385ZM74.9325 21.8023H74.0064V15.6385H72.0387V14.8235H76.7848V15.6385H74.8171V21.8031L74.9325 21.8023ZM80.3732 21.8023V14.8235H81.2994V21.6862C81.1833 21.8023 80.3732 21.8023 80.3732 21.8023V21.8023ZM84.3086 21.8023V15.6385H82.3417V14.8235H87.0878V15.6385H85.1201C85.2355 15.6385 85.2355 21.8031 85.2355 21.8031H84.3094L84.3086 21.8023ZM96.2317 20.8719C94.8425 22.2683 92.6432 22.2683 91.0225 20.8719C90.3504 20.1903 89.9759 19.2701 89.9809 18.3129C89.9809 17.3825 90.3279 16.336 91.0225 15.7546C92.5278 14.2422 94.7271 14.2422 96.2317 15.6378C96.9037 16.3194 97.2783 17.2396 97.2732 18.1968C97.2732 19.244 96.9263 20.1745 96.2317 20.8719ZM91.7171 20.2906C92.7586 21.3378 94.4955 21.3378 95.4217 20.2906C95.9414 19.7636 96.2324 19.053 96.2317 18.3129C96.2317 17.6147 95.884 16.9173 95.4217 16.336C94.3794 15.2887 92.6432 15.2887 91.7171 16.336C91.1976 16.8627 90.9065 17.573 90.9071 18.3129C90.9071 19.0111 91.254 19.7093 91.7171 20.2906ZM98.547 21.8023V14.8235H99.704L103.061 20.1738V14.8235H103.987V21.6862H103.061L99.4725 15.9869V21.5694L98.5463 21.8023H98.547Z" fill="white" stroke="white" stroke-width="0.560673"/>
<path fill-rule="evenodd" clip-rule="evenodd" d="M89.8648 31.8053C87.0864 31.8053 85.0033 34.0152 85.1194 36.8065C85.2348 39.5984 87.3186 41.6922 90.0963 41.5754C92.7586 41.5754 94.8425 39.3655 94.8425 36.6903C94.8425 34.0152 92.7586 31.8053 89.8648 31.8053V31.8053ZM89.8648 39.7145C88.2448 39.8314 86.8555 38.5519 86.7394 36.9233C86.624 35.2947 87.8971 33.8991 89.5179 33.7829C91.1386 33.6661 92.5278 34.9456 92.6432 36.5742V36.8072C92.7586 38.3189 91.4856 39.7145 89.8648 39.7145ZM79.1002 31.8053C76.3217 31.8053 74.2379 34.0152 74.354 36.8065C74.354 39.5984 76.5533 41.6922 79.3317 41.5754C81.994 41.5754 84.0771 39.3655 84.0771 36.6903C84.0771 34.0152 81.8779 31.8053 79.1002 31.8053V31.8053ZM79.1002 39.7145C77.4794 39.8314 76.0902 38.5519 75.9748 36.9233C75.8587 35.2947 77.1317 33.8991 78.7532 33.7829C80.3733 33.6661 81.7625 34.9456 81.8779 36.5742V36.8072C81.8779 38.3189 80.7202 39.7145 79.0994 39.7145H79.1002ZM66.251 33.317V35.4115H71.3448C71.2286 36.4581 70.8817 37.3885 70.1864 38.0867C69.1448 39.1332 67.7556 39.7145 66.3671 39.5984C63.3571 39.4823 61.0418 36.8072 61.1579 33.7829C61.2733 30.991 63.5887 28.5488 66.3671 28.5488C67.7563 28.5488 69.1455 29.014 70.071 30.0606L71.5756 28.6649C70.1864 27.2686 68.2187 26.5711 66.3671 26.5711C62.1995 26.3389 58.7271 29.7115 58.4949 33.8991C58.2641 38.0867 61.621 41.5754 65.7879 41.8083H66.3671C68.3348 41.9245 70.3025 41.1102 71.6917 39.7145C73.0809 37.9698 73.7748 35.7606 73.4279 33.55H66.251V33.3177V33.317ZM118.804 34.9456C118.225 33.0848 116.489 31.9214 114.521 31.8053C111.975 31.8053 109.89 33.7829 109.89 36.4574V36.6903C109.775 39.3655 111.859 41.5754 114.521 41.6915H114.752C116.373 41.6915 117.994 40.8779 118.92 39.5984L117.183 38.435C116.72 39.2493 115.794 39.7145 114.752 39.7145C114.246 39.7159 113.75 39.5748 113.32 39.3075C112.89 39.0402 112.544 38.6574 112.322 38.2028L118.919 35.4108L118.804 34.9456V34.9456ZM112.09 36.5742C111.975 35.0624 113.132 33.7829 114.637 33.7829H114.752C115.562 33.6661 116.257 34.132 116.605 34.8302L112.09 36.5742V36.5742ZM106.649 41.3431H108.733V26.9202H106.649V41.3431ZM103.177 32.9687C102.366 32.2705 101.441 31.8053 100.399 31.8053C97.6202 31.9214 95.6532 34.2482 95.7686 37.0394C95.884 39.5984 97.8524 41.5754 100.399 41.6915C101.441 41.6915 102.366 41.3431 103.061 40.5288H103.177V41.227C103.409 42.6226 102.482 43.9021 101.093 44.0183H100.63C99.4725 44.0183 98.547 43.3201 98.084 42.2736L96.2317 43.0878C96.9263 44.8326 98.6625 45.9959 100.63 45.9959C103.177 45.9959 105.261 44.4835 105.261 40.8779V32.1544H103.177V32.9687V32.9687ZM100.63 39.7153C99.0101 39.5984 97.8517 38.2028 97.8517 36.5742C97.9679 35.0624 99.1255 33.7829 100.63 33.7829C102.136 33.8991 103.409 35.0624 103.292 36.6903V36.8072C103.409 38.435 102.251 39.7145 100.63 39.7145V39.7153ZM128.875 26.9202H123.666V41.3431H125.749V35.876H128.759C131.19 36.109 133.273 34.132 133.505 31.6891C133.736 29.2463 131.769 27.1532 129.337 26.9202H128.874H128.875ZM128.875 33.8991H125.865V28.8979H128.875C130.264 28.8979 131.422 30.0606 131.422 31.3401C131.422 32.7364 130.379 33.8991 128.875 33.8991ZM142.418 31.8053C140.798 31.6891 139.292 32.6196 138.598 34.0152L140.566 34.8295C140.913 34.1313 141.723 33.6661 142.534 33.7822C143.692 33.6661 144.733 34.4804 144.849 35.6438V35.7599C144.155 35.4108 143.344 35.1786 142.534 35.2947C140.566 35.2947 138.366 36.4581 138.366 38.5519C138.482 40.4127 139.987 41.8083 141.955 41.6922H142.071C143.229 41.8083 144.155 41.227 144.849 40.2959H144.965V41.4593H147.049V35.876C146.817 33.3177 144.849 31.8053 142.418 31.8053V31.8053ZM142.071 39.7145C141.261 39.8314 140.566 39.3655 140.335 38.5519C140.335 37.3885 141.492 37.0394 142.65 37.0394C143.344 37.0394 144.039 37.2724 144.617 37.5046C144.502 38.7841 143.344 39.7145 142.071 39.7145V39.7145ZM154.341 32.1544L151.794 38.3189L149.248 32.1544H146.932L150.752 40.8779L148.553 45.763H150.868L156.888 32.1544H154.341V32.1544ZM134.894 41.3431H136.978V26.9202H134.894V41.3431Z" fill="white"/>
<defs>
<linearGradient id="paint0_linear_2086_2087" x1="35.9608" y1="42.7732" x2="13.0135" y2="36.6522" gradientUnits="userSpaceOnUse">
<stop stop-color="#4998D3"/>
<stop offset="0.01" stop-color="#4A99D3"/>
<stop offset="0.26" stop-color="#42BAEB"/>
<stop offset="0.51" stop-color="#41C7F2"/>
<stop offset="0.76" stop-color="#56C9E9"/>
<stop offset="1" stop-color="#5BCAE8"/>
</linearGradient>
<linearGradient id="paint1_linear_2086_2087" x1="49.9484" y1="29.8118" x2="21.937" y2="29.8118" gradientUnits="userSpaceOnUse">
<stop stop-color="#FEE000"/>
<stop offset="0.41" stop-color="#FEBD11"/>
<stop offset="0.78" stop-color="#FAA51A"/>
<stop offset="1" stop-color="#F99B1C"/>
</linearGradient>
<linearGradient id="paint2_linear_2086_2087" x1="29.8387" y1="36.7037" x2="11.4313" y2="5.77579" gradientUnits="userSpaceOnUse">
<stop stop-color="#EF4149"/>
<stop offset="1" stop-color="#C31E63"/>
</linearGradient>
<linearGradient id="paint3_linear_2086_2087" x1="9.67971" y1="43.046" x2="17.7035" y2="29.1744" gradientUnits="userSpaceOnUse">
<stop stop-color="#32A072"/>
<stop offset="0.07" stop-color="#2CA772"/>
<stop offset="0.48" stop-color="#4BBA71"/>
<stop offset="0.8" stop-color="#5EBD6B"/>
<stop offset="1" stop-color="#66BE69"/>
</linearGradient>
</defs>
</svg>
