<svg width="18" height="22" viewBox="0 0 18 22" fill="none" xmlns="http://www.w3.org/2000/svg">
<path d="M4.5008 7.00999V5.70035C4.5008 3.45035 6.3108 1.24035 8.5608 1.03035C9.18598 0.96893 9.81709 1.03908 10.4135 1.23629C11.0099 1.4335 11.5585 1.7534 12.0238 2.1754C12.4891 2.5974 12.8609 3.11215 13.1153 3.68652C13.3697 4.2609 13.501 4.88217 13.5008 5.51035V6.89035M6.0008 21.0004H12.0008C16.0208 21.0004 16.7408 19.3904 16.9508 17.4304L17.7008 11.4304C17.9708 8.99035 17.2708 7.00035 13.0008 7.00035H5.0008C0.730803 7.00035 0.0308032 8.99035 0.300803 11.4304L1.0508 17.4304C1.2608 19.3904 1.9808 21.0004 6.0008 21.0004Z" stroke="white" stroke-width="0.5" stroke-miterlimit="10" stroke-linecap="round" stroke-linejoin="round"/>
</svg>
